<?xml version="1.0" encoding="UTF-8" standalone="no"?>
<!DOCTYPE svg PUBLIC "-//W3C//DTD SVG 1.1//EN"
 "http://www.w3.org/Graphics/SVG/1.1/DTD/svg11.dtd">
<!-- Generated by graphviz version 2.47.3 (20210619.1520)
 -->
<!-- Title: dependencies Pages: 1 -->
<svg width="2228pt" height="247pt"
 viewBox="0.00 0.00 2228.00 246.80" xmlns="http://www.w3.org/2000/svg" xmlns:xlink="http://www.w3.org/1999/xlink">
<g id="graph0" class="graph" transform="scale(1 1) rotate(0) translate(4 242.8)">
<title>dependencies</title>
<polygon fill="white" stroke="transparent" points="-4,4 -4,-242.8 2224,-242.8 2224,4 -4,4"/>
<text text-anchor="middle" x="1110" y="-8.2" font-family="sans-serif" font-size="14.00">dependencies</text>
<g id="clust1" class="cluster">
<title>cluster_AppModule</title>
<polygon fill="none" stroke="black" stroke-dasharray="1,5" points="8,-32.8 8,-230.8 2212,-230.8 2212,-32.8 8,-32.8"/>
</g>
<g id="clust2" class="cluster">
<title>cluster_AppModule_declarations</title>
<polygon fill="none" stroke="black" points="592,-40.8 592,-92.8 2204,-92.8 2204,-40.8 592,-40.8"/>
</g>
<g id="clust14" class="cluster">
<title>cluster_AppModule_imports</title>
<polygon fill="none" stroke="black" points="212,-40.8 212,-92.8 584,-92.8 584,-40.8 212,-40.8"/>
</g>
<g id="clust16" class="cluster">
<title>cluster_AppModule_bootstrap</title>
<polygon fill="none" stroke="black" points="1068,-170.8 1068,-222.8 1192,-222.8 1192,-170.8 1068,-170.8"/>
</g>
<g id="clust17" class="cluster">
<title>cluster_AppModule_providers</title>
<polygon fill="none" stroke="black" points="16,-40.8 16,-92.8 204,-92.8 204,-40.8 16,-40.8"/>
</g>
<!-- AppComponent -->
<g id="node1" class="node">
<title>AppComponent</title>
<polygon fill="#ffffb3" stroke="black" points="2195.94,-84.8 2090.06,-84.8 2090.06,-48.8 2195.94,-48.8 2195.94,-84.8"/>
<text text-anchor="middle" x="2143" y="-62.6" font-family="Times,serif" font-size="14.00">AppComponent</text>
</g>
<!-- AppModule -->
<g id="node12" class="node">
<title>AppModule</title>
<polygon fill="#8dd3c7" stroke="black" points="1171.66,-149.8 1168.66,-153.8 1147.66,-153.8 1144.66,-149.8 1088.34,-149.8 1088.34,-113.8 1171.66,-113.8 1171.66,-149.8"/>
<text text-anchor="middle" x="1130" y="-127.6" font-family="Times,serif" font-size="14.00">AppModule</text>
</g>
<!-- AppComponent&#45;&gt;AppModule -->
<g id="edge1" class="edge">
<title>AppComponent&#45;&gt;AppModule</title>
<path fill="none" stroke="black" d="M2143,-85.12C2143,-108.46 2143,-145.8 2143,-145.8 2143,-145.8 1181.92,-145.8 1181.92,-145.8"/>
<polygon fill="black" stroke="black" points="1181.92,-142.3 1171.92,-145.8 1181.92,-149.3 1181.92,-142.3"/>
</g>
<!-- ChatComponent -->
<g id="node2" class="node">
<title>ChatComponent</title>
<polygon fill="#ffffb3" stroke="black" points="2071.77,-84.8 1964.23,-84.8 1964.23,-48.8 2071.77,-48.8 2071.77,-84.8"/>
<text text-anchor="middle" x="2018" y="-62.6" font-family="Times,serif" font-size="14.00">ChatComponent</text>
</g>
<!-- ChatComponent&#45;&gt;AppModule -->
<g id="edge2" class="edge">
<title>ChatComponent&#45;&gt;AppModule</title>
<path fill="none" stroke="black" d="M2018,-85.09C2018,-107.01 2018,-140.8 2018,-140.8 2018,-140.8 1181.94,-140.8 1181.94,-140.8"/>
<polygon fill="black" stroke="black" points="1181.94,-137.3 1171.94,-140.8 1181.94,-144.3 1181.94,-137.3"/>
</g>
<!-- CoursesCardListComponent -->
<g id="node3" class="node">
<title>CoursesCardListComponent</title>
<polygon fill="#ffffb3" stroke="black" points="1945.92,-84.8 1770.08,-84.8 1770.08,-48.8 1945.92,-48.8 1945.92,-84.8"/>
<text text-anchor="middle" x="1858" y="-62.6" font-family="Times,serif" font-size="14.00">CoursesCardListComponent</text>
</g>
<!-- CoursesCardListComponent&#45;&gt;AppModule -->
<g id="edge3" class="edge">
<title>CoursesCardListComponent&#45;&gt;AppModule</title>
<path fill="none" stroke="black" d="M1858,-84.83C1858,-105.57 1858,-136.8 1858,-136.8 1858,-136.8 1181.76,-136.8 1181.76,-136.8"/>
<polygon fill="black" stroke="black" points="1181.76,-133.3 1171.76,-136.8 1181.76,-140.3 1181.76,-133.3"/>
</g>
<!-- CoursesComponent -->
<g id="node4" class="node">
<title>CoursesComponent</title>
<polygon fill="#ffffb3" stroke="black" points="1752.43,-84.8 1625.57,-84.8 1625.57,-48.8 1752.43,-48.8 1752.43,-84.8"/>
<text text-anchor="middle" x="1689" y="-62.6" font-family="Times,serif" font-size="14.00">CoursesComponent</text>
</g>
<!-- CoursesComponent&#45;&gt;AppModule -->
<g id="edge4" class="edge">
<title>CoursesComponent&#45;&gt;AppModule</title>
<path fill="none" stroke="black" d="M1689,-84.91C1689,-104.14 1689,-131.8 1689,-131.8 1689,-131.8 1182.02,-131.8 1182.02,-131.8"/>
<polygon fill="black" stroke="black" points="1182.02,-128.3 1172.02,-131.8 1182.02,-135.3 1182.02,-128.3"/>
</g>
<!-- EventsComponent -->
<g id="node5" class="node">
<title>EventsComponent</title>
<polygon fill="#ffffb3" stroke="black" points="1607.94,-84.8 1488.06,-84.8 1488.06,-48.8 1607.94,-48.8 1607.94,-84.8"/>
<text text-anchor="middle" x="1548" y="-62.6" font-family="Times,serif" font-size="14.00">EventsComponent</text>
</g>
<!-- EventsComponent&#45;&gt;AppModule -->
<g id="edge5" class="edge">
<title>EventsComponent&#45;&gt;AppModule</title>
<path fill="none" stroke="black" d="M1548,-85.1C1548,-103.07 1548,-127.8 1548,-127.8 1548,-127.8 1181.99,-127.8 1181.99,-127.8"/>
<polygon fill="black" stroke="black" points="1181.99,-124.3 1171.99,-127.8 1181.99,-131.3 1181.99,-124.3"/>
</g>
<!-- FooterComponent -->
<g id="node6" class="node">
<title>FooterComponent</title>
<polygon fill="#ffffb3" stroke="black" points="1469.88,-84.8 1352.12,-84.8 1352.12,-48.8 1469.88,-48.8 1469.88,-84.8"/>
<text text-anchor="middle" x="1411" y="-62.6" font-family="Times,serif" font-size="14.00">FooterComponent</text>
</g>
<!-- FooterComponent&#45;&gt;AppModule -->
<g id="edge6" class="edge">
<title>FooterComponent&#45;&gt;AppModule</title>
<path fill="none" stroke="black" d="M1411,-84.83C1411,-101.2 1411,-122.8 1411,-122.8 1411,-122.8 1181.77,-122.8 1181.77,-122.8"/>
<polygon fill="black" stroke="black" points="1181.77,-119.3 1171.77,-122.8 1181.77,-126.3 1181.77,-119.3"/>
</g>
<!-- LoginComponent -->
<g id="node7" class="node">
<title>LoginComponent</title>
<polygon fill="#ffffb3" stroke="black" points="1334.28,-84.8 1219.72,-84.8 1219.72,-48.8 1334.28,-48.8 1334.28,-84.8"/>
<text text-anchor="middle" x="1277" y="-62.6" font-family="Times,serif" font-size="14.00">LoginComponent</text>
</g>
<!-- LoginComponent&#45;&gt;AppModule -->
<g id="edge7" class="edge">
<title>LoginComponent&#45;&gt;AppModule</title>
<path fill="none" stroke="black" d="M1277,-84.99C1277,-99.98 1277,-118.8 1277,-118.8 1277,-118.8 1181.73,-118.8 1181.73,-118.8"/>
<polygon fill="black" stroke="black" points="1181.73,-115.3 1171.73,-118.8 1181.73,-122.3 1181.73,-115.3"/>
</g>
<!-- NavigationComponent -->
<g id="node8" class="node">
<title>NavigationComponent</title>
<polygon fill="#ffffb3" stroke="black" points="1201.54,-84.8 1058.46,-84.8 1058.46,-48.8 1201.54,-48.8 1201.54,-84.8"/>
<text text-anchor="middle" x="1130" y="-62.6" font-family="Times,serif" font-size="14.00">NavigationComponent</text>
</g>
<!-- NavigationComponent&#45;&gt;AppModule -->
<g id="edge8" class="edge">
<title>NavigationComponent&#45;&gt;AppModule</title>
<path fill="none" stroke="black" d="M1130,-84.91C1130,-84.91 1130,-103.79 1130,-103.79"/>
<polygon fill="black" stroke="black" points="1126.5,-103.79 1130,-113.79 1133.5,-103.79 1126.5,-103.79"/>
</g>
<!-- NewsComponent -->
<g id="node9" class="node">
<title>NewsComponent</title>
<polygon fill="#ffffb3" stroke="black" points="1040.7,-84.8 927.3,-84.8 927.3,-48.8 1040.7,-48.8 1040.7,-84.8"/>
<text text-anchor="middle" x="984" y="-62.6" font-family="Times,serif" font-size="14.00">NewsComponent</text>
</g>
<!-- NewsComponent&#45;&gt;AppModule -->
<g id="edge9" class="edge">
<title>NewsComponent&#45;&gt;AppModule</title>
<path fill="none" stroke="black" d="M984,-84.99C984,-99.98 984,-118.8 984,-118.8 984,-118.8 1078.16,-118.8 1078.16,-118.8"/>
<polygon fill="black" stroke="black" points="1078.16,-122.3 1088.16,-118.8 1078.16,-115.3 1078.16,-122.3"/>
</g>
<!-- RoomsComponent -->
<g id="node10" class="node">
<title>RoomsComponent</title>
<polygon fill="#ffffb3" stroke="black" points="909.5,-84.8 788.5,-84.8 788.5,-48.8 909.5,-48.8 909.5,-84.8"/>
<text text-anchor="middle" x="849" y="-62.6" font-family="Times,serif" font-size="14.00">RoomsComponent</text>
</g>
<!-- RoomsComponent&#45;&gt;AppModule -->
<g id="edge10" class="edge">
<title>RoomsComponent&#45;&gt;AppModule</title>
<path fill="none" stroke="black" d="M849,-84.83C849,-101.2 849,-122.8 849,-122.8 849,-122.8 1078.23,-122.8 1078.23,-122.8"/>
<polygon fill="black" stroke="black" points="1078.23,-126.3 1088.23,-122.8 1078.23,-119.3 1078.23,-126.3"/>
</g>
<!-- SelectLanguageComponent -->
<g id="node11" class="node">
<title>SelectLanguageComponent</title>
<polygon fill="#ffffb3" stroke="black" points="770.24,-84.8 599.76,-84.8 599.76,-48.8 770.24,-48.8 770.24,-84.8"/>
<text text-anchor="middle" x="685" y="-62.6" font-family="Times,serif" font-size="14.00">SelectLanguageComponent</text>
</g>
<!-- SelectLanguageComponent&#45;&gt;AppModule -->
<g id="edge11" class="edge">
<title>SelectLanguageComponent&#45;&gt;AppModule</title>
<path fill="none" stroke="black" d="M685,-85.1C685,-103.07 685,-127.8 685,-127.8 685,-127.8 1078.14,-127.8 1078.14,-127.8"/>
<polygon fill="black" stroke="black" points="1078.14,-131.3 1088.14,-127.8 1078.14,-124.3 1078.14,-131.3"/>
</g>
<!-- AppComponent  -->
<g id="node16" class="node">
<title>AppComponent </title>
<polygon fill="#80b1d3" stroke="black" points="1184.44,-214.8 1075.56,-214.8 1075.56,-178.8 1184.44,-178.8 1184.44,-214.8"/>
<text text-anchor="middle" x="1130" y="-192.6" font-family="Times,serif" font-size="14.00">AppComponent </text>
</g>
<!-- AppModule&#45;&gt;AppComponent  -->
<g id="edge15" class="edge">
<title>AppModule&#45;&gt;AppComponent </title>
<path fill="none" stroke="black" stroke-dasharray="1,5" d="M1130,-149.91C1130,-149.91 1130,-168.79 1130,-168.79"/>
<polygon fill="black" stroke="black" points="1126.5,-168.79 1130,-178.79 1133.5,-168.79 1126.5,-168.79"/>
</g>
<!-- AppRoutingModule -->
<g id="node13" class="node">
<title>AppRoutingModule</title>
<polygon fill="#8dd3c7" stroke="black" points="576.27,-84.8 573.27,-88.8 552.27,-88.8 549.27,-84.8 447.73,-84.8 447.73,-48.8 576.27,-48.8 576.27,-84.8"/>
<text text-anchor="middle" x="512" y="-62.6" font-family="Times,serif" font-size="14.00">AppRoutingModule</text>
</g>
<!-- AppRoutingModule&#45;&gt;AppModule -->
<g id="edge12" class="edge">
<title>AppRoutingModule&#45;&gt;AppModule</title>
<path fill="none" stroke="black" d="M512,-84.91C512,-104.14 512,-131.8 512,-131.8 512,-131.8 1078.01,-131.8 1078.01,-131.8"/>
<polygon fill="black" stroke="black" points="1078.01,-135.3 1088.01,-131.8 1078.01,-128.3 1078.01,-135.3"/>
</g>
<!-- I18nModule -->
<g id="node14" class="node">
<title>I18nModule</title>
<polygon fill="#8dd3c7" stroke="black" points="429.71,-84.8 426.71,-88.8 405.71,-88.8 402.71,-84.8 344.29,-84.8 344.29,-48.8 429.71,-48.8 429.71,-84.8"/>
<text text-anchor="middle" x="387" y="-62.6" font-family="Times,serif" font-size="14.00">I18nModule</text>
</g>
<!-- I18nModule&#45;&gt;AppModule -->
<g id="edge13" class="edge">
<title>I18nModule&#45;&gt;AppModule</title>
<path fill="none" stroke="black" d="M387,-84.83C387,-105.57 387,-136.8 387,-136.8 387,-136.8 1078.19,-136.8 1078.19,-136.8"/>
<polygon fill="black" stroke="black" points="1078.19,-140.3 1088.19,-136.8 1078.19,-133.3 1078.19,-140.3"/>
</g>
<!-- MaterialModule -->
<g id="node15" class="node">
<title>MaterialModule</title>
<polygon fill="#8dd3c7" stroke="black" points="326.47,-84.8 323.47,-88.8 302.47,-88.8 299.47,-84.8 219.53,-84.8 219.53,-48.8 326.47,-48.8 326.47,-84.8"/>
<text text-anchor="middle" x="273" y="-62.6" font-family="Times,serif" font-size="14.00">MaterialModule</text>
</g>
<!-- MaterialModule&#45;&gt;AppModule -->
<g id="edge14" class="edge">
<title>MaterialModule&#45;&gt;AppModule</title>
<path fill="none" stroke="black" d="M273,-85.09C273,-107.01 273,-140.8 273,-140.8 273,-140.8 1078.08,-140.8 1078.08,-140.8"/>
<polygon fill="black" stroke="black" points="1078.09,-144.3 1088.08,-140.8 1078.08,-137.3 1078.09,-144.3"/>
</g>
<!-- InterceptorsService -->
<g id="node17" class="node">
<title>InterceptorsService</title>
<ellipse fill="#fdb462" stroke="black" cx="110" cy="-66.8" rx="86.21" ry="18"/>
<text text-anchor="middle" x="110" y="-62.6" font-family="Times,serif" font-size="14.00">InterceptorsService</text>
</g>
<!-- InterceptorsService&#45;&gt;AppModule -->
<g id="edge16" class="edge">
<title>InterceptorsService&#45;&gt;AppModule</title>
<path fill="none" stroke="black" d="M110,-85.12C110,-108.46 110,-145.8 110,-145.8 110,-145.8 1078.11,-145.8 1078.11,-145.8"/>
<polygon fill="black" stroke="black" points="1078.11,-149.3 1088.11,-145.8 1078.11,-142.3 1078.11,-149.3"/>
</g>
</g>
</svg>
