<?xml version="1.0" encoding="UTF-8" standalone="no"?>
<!DOCTYPE svg PUBLIC "-//W3C//DTD SVG 1.1//EN"
 "http://www.w3.org/Graphics/SVG/1.1/DTD/svg11.dtd">
<!-- Generated by graphviz version 2.47.3 (20210619.1520)
 -->
<!-- Title: dependencies Pages: 1 -->
<svg width="2228pt" height="247pt"
 viewBox="0.00 0.00 2228.00 246.80" xmlns="http://www.w3.org/2000/svg" xmlns:xlink="http://www.w3.org/1999/xlink">
<g id="graph0" class="graph" transform="scale(1 1) rotate(0) translate(4 242.8)">
<title>dependencies</title>
<polygon fill="white" stroke="transparent" points="-4,4 -4,-242.8 2224,-242.8 2224,4 -4,4"/>
<text text-anchor="middle" x="1110" y="-8.2" font-family="sans-serif" font-size="14.00">dependencies</text>
<g id="clust1" class="cluster">
<title>cluster_AppModule</title>
<polygon fill="none" stroke="black" stroke-dasharray="1,5" points="8,-32.8 8,-230.8 2212,-230.8 2212,-32.8 8,-32.8"/>
</g>
<g id="clust14" class="cluster">
<title>cluster_AppModule_imports</title>
<polygon fill="none" stroke="black" points="1832,-40.8 1832,-92.8 2204,-92.8 2204,-40.8 1832,-40.8"/>
</g>
<g id="clust16" class="cluster">
<title>cluster_AppModule_bootstrap</title>
<polygon fill="none" stroke="black" points="1051,-170.8 1051,-222.8 1175,-222.8 1175,-170.8 1051,-170.8"/>
</g>
<g id="clust17" class="cluster">
<title>cluster_AppModule_providers</title>
<polygon fill="none" stroke="black" points="1636,-40.8 1636,-92.8 1824,-92.8 1824,-40.8 1636,-40.8"/>
</g>
<g id="clust2" class="cluster">
<title>cluster_AppModule_declarations</title>
<polygon fill="none" stroke="black" points="16,-40.8 16,-92.8 1628,-92.8 1628,-40.8 16,-40.8"/>
</g>
<!-- AppComponent -->
<g id="node1" class="node">
<title>AppComponent</title>
<polygon fill="#ffffb3" stroke="black" points="1619.94,-84.8 1514.06,-84.8 1514.06,-48.8 1619.94,-48.8 1619.94,-84.8"/>
<text text-anchor="middle" x="1567" y="-62.6" font-family="Times,serif" font-size="14.00">AppComponent</text>
</g>
<!-- AppModule -->
<g id="node12" class="node">
<title>AppModule</title>
<polygon fill="#8dd3c7" stroke="black" points="1154.66,-149.8 1151.66,-153.8 1130.66,-153.8 1127.66,-149.8 1071.34,-149.8 1071.34,-113.8 1154.66,-113.8 1154.66,-149.8"/>
<text text-anchor="middle" x="1113" y="-127.6" font-family="Times,serif" font-size="14.00">AppModule</text>
</g>
<!-- AppComponent&#45;&gt;AppModule -->
<g id="edge1" class="edge">
<title>AppComponent&#45;&gt;AppModule</title>
<path fill="none" stroke="black" d="M1567,-85.1C1567,-103.07 1567,-127.8 1567,-127.8 1567,-127.8 1164.9,-127.8 1164.9,-127.8"/>
<polygon fill="black" stroke="black" points="1164.9,-124.3 1154.9,-127.8 1164.9,-131.3 1164.9,-124.3"/>
</g>
<!-- ChatComponent -->
<g id="node2" class="node">
<title>ChatComponent</title>
<polygon fill="#ffffb3" stroke="black" points="1495.77,-84.8 1388.23,-84.8 1388.23,-48.8 1495.77,-48.8 1495.77,-84.8"/>
<text text-anchor="middle" x="1442" y="-62.6" font-family="Times,serif" font-size="14.00">ChatComponent</text>
</g>
<!-- ChatComponent&#45;&gt;AppModule -->
<g id="edge2" class="edge">
<title>ChatComponent&#45;&gt;AppModule</title>
<path fill="none" stroke="black" d="M1442,-84.83C1442,-101.2 1442,-122.8 1442,-122.8 1442,-122.8 1164.67,-122.8 1164.67,-122.8"/>
<polygon fill="black" stroke="black" points="1164.67,-119.3 1154.67,-122.8 1164.67,-126.3 1164.67,-119.3"/>
</g>
<!-- CoursesCardListComponent -->
<g id="node3" class="node">
<title>CoursesCardListComponent</title>
<polygon fill="#ffffb3" stroke="black" points="1369.92,-84.8 1194.08,-84.8 1194.08,-48.8 1369.92,-48.8 1369.92,-84.8"/>
<text text-anchor="middle" x="1282" y="-62.6" font-family="Times,serif" font-size="14.00">CoursesCardListComponent</text>
</g>
<!-- CoursesCardListComponent&#45;&gt;AppModule -->
<g id="edge3" class="edge">
<title>CoursesCardListComponent&#45;&gt;AppModule</title>
<path fill="none" stroke="black" d="M1282,-84.99C1282,-99.98 1282,-118.8 1282,-118.8 1282,-118.8 1164.78,-118.8 1164.78,-118.8"/>
<polygon fill="black" stroke="black" points="1164.78,-115.3 1154.78,-118.8 1164.78,-122.3 1164.78,-115.3"/>
</g>
<!-- CoursesComponent -->
<g id="node4" class="node">
<title>CoursesComponent</title>
<polygon fill="#ffffb3" stroke="black" points="1176.43,-84.8 1049.57,-84.8 1049.57,-48.8 1176.43,-48.8 1176.43,-84.8"/>
<text text-anchor="middle" x="1113" y="-62.6" font-family="Times,serif" font-size="14.00">CoursesComponent</text>
</g>
<!-- CoursesComponent&#45;&gt;AppModule -->
<g id="edge4" class="edge">
<title>CoursesComponent&#45;&gt;AppModule</title>
<path fill="none" stroke="black" d="M1113,-84.91C1113,-84.91 1113,-103.79 1113,-103.79"/>
<polygon fill="black" stroke="black" points="1109.5,-103.79 1113,-113.79 1116.5,-103.79 1109.5,-103.79"/>
</g>
<!-- EventsComponent -->
<g id="node5" class="node">
<title>EventsComponent</title>
<polygon fill="#ffffb3" stroke="black" points="1031.94,-84.8 912.06,-84.8 912.06,-48.8 1031.94,-48.8 1031.94,-84.8"/>
<text text-anchor="middle" x="972" y="-62.6" font-family="Times,serif" font-size="14.00">EventsComponent</text>
</g>
<!-- EventsComponent&#45;&gt;AppModule -->
<g id="edge5" class="edge">
<title>EventsComponent&#45;&gt;AppModule</title>
<path fill="none" stroke="black" d="M972,-84.99C972,-99.98 972,-118.8 972,-118.8 972,-118.8 1061.08,-118.8 1061.08,-118.8"/>
<polygon fill="black" stroke="black" points="1061.08,-122.3 1071.08,-118.8 1061.08,-115.3 1061.08,-122.3"/>
</g>
<!-- FooterComponent -->
<g id="node6" class="node">
<title>FooterComponent</title>
<polygon fill="#ffffb3" stroke="black" points="893.88,-84.8 776.12,-84.8 776.12,-48.8 893.88,-48.8 893.88,-84.8"/>
<text text-anchor="middle" x="835" y="-62.6" font-family="Times,serif" font-size="14.00">FooterComponent</text>
</g>
<!-- FooterComponent&#45;&gt;AppModule -->
<g id="edge6" class="edge">
<title>FooterComponent&#45;&gt;AppModule</title>
<path fill="none" stroke="black" d="M835,-84.83C835,-101.2 835,-122.8 835,-122.8 835,-122.8 1061.08,-122.8 1061.08,-122.8"/>
<polygon fill="black" stroke="black" points="1061.08,-126.3 1071.08,-122.8 1061.08,-119.3 1061.08,-126.3"/>
</g>
<!-- LoginComponent -->
<g id="node7" class="node">
<title>LoginComponent</title>
<polygon fill="#ffffb3" stroke="black" points="758.28,-84.8 643.72,-84.8 643.72,-48.8 758.28,-48.8 758.28,-84.8"/>
<text text-anchor="middle" x="701" y="-62.6" font-family="Times,serif" font-size="14.00">LoginComponent</text>
</g>
<!-- LoginComponent&#45;&gt;AppModule -->
<g id="edge7" class="edge">
<title>LoginComponent&#45;&gt;AppModule</title>
<path fill="none" stroke="black" d="M701,-85.1C701,-103.07 701,-127.8 701,-127.8 701,-127.8 1061.23,-127.8 1061.23,-127.8"/>
<polygon fill="black" stroke="black" points="1061.23,-131.3 1071.23,-127.8 1061.23,-124.3 1061.23,-131.3"/>
</g>
<!-- NavigationComponent -->
<g id="node8" class="node">
<title>NavigationComponent</title>
<polygon fill="#ffffb3" stroke="black" points="625.54,-84.8 482.46,-84.8 482.46,-48.8 625.54,-48.8 625.54,-84.8"/>
<text text-anchor="middle" x="554" y="-62.6" font-family="Times,serif" font-size="14.00">NavigationComponent</text>
</g>
<!-- NavigationComponent&#45;&gt;AppModule -->
<g id="edge8" class="edge">
<title>NavigationComponent&#45;&gt;AppModule</title>
<path fill="none" stroke="black" d="M554,-84.91C554,-104.14 554,-131.8 554,-131.8 554,-131.8 1060.98,-131.8 1060.98,-131.8"/>
<polygon fill="black" stroke="black" points="1060.98,-135.3 1070.98,-131.8 1060.98,-128.3 1060.98,-135.3"/>
</g>
<!-- NewsComponent -->
<g id="node9" class="node">
<title>NewsComponent</title>
<polygon fill="#ffffb3" stroke="black" points="464.7,-84.8 351.3,-84.8 351.3,-48.8 464.7,-48.8 464.7,-84.8"/>
<text text-anchor="middle" x="408" y="-62.6" font-family="Times,serif" font-size="14.00">NewsComponent</text>
</g>
<!-- NewsComponent&#45;&gt;AppModule -->
<g id="edge9" class="edge">
<title>NewsComponent&#45;&gt;AppModule</title>
<path fill="none" stroke="black" d="M408,-84.83C408,-105.57 408,-136.8 408,-136.8 408,-136.8 1061.27,-136.8 1061.27,-136.8"/>
<polygon fill="black" stroke="black" points="1061.27,-140.3 1071.27,-136.8 1061.27,-133.3 1061.27,-140.3"/>
</g>
<!-- RoomsComponent -->
<g id="node10" class="node">
<title>RoomsComponent</title>
<polygon fill="#ffffb3" stroke="black" points="333.5,-84.8 212.5,-84.8 212.5,-48.8 333.5,-48.8 333.5,-84.8"/>
<text text-anchor="middle" x="273" y="-62.6" font-family="Times,serif" font-size="14.00">RoomsComponent</text>
</g>
<!-- RoomsComponent&#45;&gt;AppModule -->
<g id="edge10" class="edge">
<title>RoomsComponent&#45;&gt;AppModule</title>
<path fill="none" stroke="black" d="M273,-85.09C273,-107.01 273,-140.8 273,-140.8 273,-140.8 1061.06,-140.8 1061.06,-140.8"/>
<polygon fill="black" stroke="black" points="1061.06,-144.3 1071.06,-140.8 1061.06,-137.3 1061.06,-144.3"/>
</g>
<!-- SelectLanguageComponent -->
<g id="node11" class="node">
<title>SelectLanguageComponent</title>
<polygon fill="#ffffb3" stroke="black" points="194.24,-84.8 23.76,-84.8 23.76,-48.8 194.24,-48.8 194.24,-84.8"/>
<text text-anchor="middle" x="109" y="-62.6" font-family="Times,serif" font-size="14.00">SelectLanguageComponent</text>
</g>
<!-- SelectLanguageComponent&#45;&gt;AppModule -->
<g id="edge11" class="edge">
<title>SelectLanguageComponent&#45;&gt;AppModule</title>
<path fill="none" stroke="black" d="M109,-85.12C109,-108.46 109,-145.8 109,-145.8 109,-145.8 1061.14,-145.8 1061.14,-145.8"/>
<polygon fill="black" stroke="black" points="1061.14,-149.3 1071.14,-145.8 1061.14,-142.3 1061.14,-149.3"/>
</g>
<!-- AppComponent  -->
<g id="node16" class="node">
<title>AppComponent </title>
<polygon fill="#80b1d3" stroke="black" points="1167.44,-214.8 1058.56,-214.8 1058.56,-178.8 1167.44,-178.8 1167.44,-214.8"/>
<text text-anchor="middle" x="1113" y="-192.6" font-family="Times,serif" font-size="14.00">AppComponent </text>
</g>
<!-- AppModule&#45;&gt;AppComponent  -->
<g id="edge15" class="edge">
<title>AppModule&#45;&gt;AppComponent </title>
<path fill="none" stroke="black" stroke-dasharray="1,5" d="M1113,-149.91C1113,-149.91 1113,-168.79 1113,-168.79"/>
<polygon fill="black" stroke="black" points="1109.5,-168.79 1113,-178.79 1116.5,-168.79 1109.5,-168.79"/>
</g>
<!-- AppRoutingModule -->
<g id="node13" class="node">
<title>AppRoutingModule</title>
<polygon fill="#8dd3c7" stroke="black" points="2196.27,-84.8 2193.27,-88.8 2172.27,-88.8 2169.27,-84.8 2067.73,-84.8 2067.73,-48.8 2196.27,-48.8 2196.27,-84.8"/>
<text text-anchor="middle" x="2132" y="-62.6" font-family="Times,serif" font-size="14.00">AppRoutingModule</text>
</g>
<!-- AppRoutingModule&#45;&gt;AppModule -->
<g id="edge12" class="edge">
<title>AppRoutingModule&#45;&gt;AppModule</title>
<path fill="none" stroke="black" d="M2132,-85.12C2132,-108.46 2132,-145.8 2132,-145.8 2132,-145.8 1164.85,-145.8 1164.85,-145.8"/>
<polygon fill="black" stroke="black" points="1164.85,-142.3 1154.85,-145.8 1164.85,-149.3 1164.85,-142.3"/>
</g>
<!-- I18nModule -->
<g id="node14" class="node">
<title>I18nModule</title>
<polygon fill="#8dd3c7" stroke="black" points="2049.71,-84.8 2046.71,-88.8 2025.71,-88.8 2022.71,-84.8 1964.29,-84.8 1964.29,-48.8 2049.71,-48.8 2049.71,-84.8"/>
<text text-anchor="middle" x="2007" y="-62.6" font-family="Times,serif" font-size="14.00">I18nModule</text>
</g>
<!-- I18nModule&#45;&gt;AppModule -->
<g id="edge13" class="edge">
<title>I18nModule&#45;&gt;AppModule</title>
<path fill="none" stroke="black" d="M2007,-85.09C2007,-107.01 2007,-140.8 2007,-140.8 2007,-140.8 1164.92,-140.8 1164.92,-140.8"/>
<polygon fill="black" stroke="black" points="1164.92,-137.3 1154.92,-140.8 1164.92,-144.3 1164.92,-137.3"/>
</g>
<!-- MaterialModule -->
<g id="node15" class="node">
<title>MaterialModule</title>
<polygon fill="#8dd3c7" stroke="black" points="1946.47,-84.8 1943.47,-88.8 1922.47,-88.8 1919.47,-84.8 1839.53,-84.8 1839.53,-48.8 1946.47,-48.8 1946.47,-84.8"/>
<text text-anchor="middle" x="1893" y="-62.6" font-family="Times,serif" font-size="14.00">MaterialModule</text>
</g>
<!-- MaterialModule&#45;&gt;AppModule -->
<g id="edge14" class="edge">
<title>MaterialModule&#45;&gt;AppModule</title>
<path fill="none" stroke="black" d="M1893,-84.83C1893,-105.57 1893,-136.8 1893,-136.8 1893,-136.8 1164.66,-136.8 1164.66,-136.8"/>
<polygon fill="black" stroke="black" points="1164.66,-133.3 1154.66,-136.8 1164.66,-140.3 1164.66,-133.3"/>
</g>
<!-- InterceptorsService -->
<g id="node17" class="node">
<title>InterceptorsService</title>
<ellipse fill="#fdb462" stroke="black" cx="1730" cy="-66.8" rx="86.21" ry="18"/>
<text text-anchor="middle" x="1730" y="-62.6" font-family="Times,serif" font-size="14.00">InterceptorsService</text>
</g>
<!-- InterceptorsService&#45;&gt;AppModule -->
<g id="edge16" class="edge">
<title>InterceptorsService&#45;&gt;AppModule</title>
<path fill="none" stroke="black" d="M1730,-84.91C1730,-104.14 1730,-131.8 1730,-131.8 1730,-131.8 1164.92,-131.8 1164.92,-131.8"/>
<polygon fill="black" stroke="black" points="1164.92,-128.3 1154.92,-131.8 1164.92,-135.3 1164.92,-128.3"/>
</g>
</g>
</svg>
